<svg width="50" height="80" viewBox="0 0 50 80" fill="none" xmlns="http://www.w3.org/2000/svg">
<path d="M41.7039 0.000438137C40.6366 -0.00246875 39.582 0.185931 38.6177 0.551768C37.6534 0.917613 36.8038 1.45162 36.1314 2.11453L1.62521 36.397C0.574438 37.4194 4.03568e-06 38.7018 3.90635e-06 40.0252C3.77702e-06 41.3487 0.574437 42.6311 1.62521 43.6534L37.3459 77.9359C38.5586 79.1027 40.3011 79.8365 42.1902 79.9758C44.0793 80.1151 45.9602 79.6485 47.4192 78.6787C48.8781 77.7088 49.7956 76.3152 49.9698 74.8043C50.1439 73.2935 49.5605 71.7892 48.3479 70.6223L16.4136 39.9966L47.2763 9.37098C48.1499 8.53228 48.7048 7.51101 48.8754 6.42797C49.046 5.34494 48.8252 4.24548 48.2389 3.2597C47.6527 2.27392 46.7257 1.44308 45.5676 0.865474C44.4094 0.287868 43.0686 -0.0123181 41.7039 0.000438137Z" fill="white"/>
</svg>
