<svg width="50" height="80" viewBox="0 0 50 80" fill="none" xmlns="http://www.w3.org/2000/svg">
<path d="M8.29614 0.000438137C9.36344 -0.00246112 10.418 0.185924 11.3823 0.551768C12.3466 0.917613 13.1962 1.45162 13.8686 2.11453L48.3748 36.397C49.4256 37.4194 50 38.7018 50 40.0252C50 41.3487 49.4256 42.6311 48.3748 43.6534L12.6541 77.9359C11.4414 79.1027 9.6989 79.8365 7.8098 79.9758C5.9207 80.1151 4.03979 79.6485 2.58083 78.6787C1.12188 77.7088 0.204399 76.3152 0.0302272 74.8043C-0.143944 73.2935 0.43946 71.7892 1.65209 70.6223L33.5864 39.9966L2.72371 9.37098C1.85011 8.53228 1.29517 7.51101 1.12457 6.42797C0.953972 5.34494 1.17484 4.24548 1.76106 3.2597C2.34728 2.27392 3.27431 1.44308 4.43245 0.865474C5.59058 0.287868 6.93137 -0.0123105 8.29614 0.000438137Z" fill="white"/>
</svg>
