<svg width="19" height="27" viewBox="0 0 19 27" fill="none" xmlns="http://www.w3.org/2000/svg">
<path d="M1.03828 0.2C0.738281 0.2 0.488281 0.283334 0.288282 0.45C0.121615 0.65 0.0382814 0.9 0.0382814 1.2V2.05C0.0382814 2.38333 0.104948 2.65 0.238281 2.85C0.404948 3.08333 0.688282 3.33333 1.08828 3.6L15.5383 13.6L1.08828 23.6C0.688282 23.8667 0.404948 24.1 0.238281 24.3C0.104948 24.5333 0.0382814 24.8167 0.0382814 25.15V26C0.0382814 26.3 0.121615 26.5333 0.288282 26.7C0.488281 26.9 0.738281 27 1.03828 27C1.33828 27 1.78828 26.8 2.38828 26.4L17.1383 16.2C17.6716 15.8333 18.0383 15.4667 18.2383 15.1C18.4716 14.7667 18.5883 14.3667 18.5883 13.9V13.3C18.5883 12.8333 18.4716 12.4167 18.2383 12.05C18.0383 11.7167 17.6716 11.3667 17.1383 11L2.38828 0.8C1.78828 0.4 1.33828 0.2 1.03828 0.2Z" fill="#6C1D45"/>
</svg>
