<svg width="19" height="27" viewBox="0 0 19 27" fill="none" xmlns="http://www.w3.org/2000/svg">
<path d="M17.9639 0.2C17.6639 0.2 17.2139 0.4 16.6139 0.8L1.86387 11C1.33053 11.3667 0.947201 11.7167 0.713867 12.05C0.513867 12.4167 0.413867 12.8333 0.413867 13.3V13.9C0.413867 14.3667 0.513867 14.7667 0.713867 15.1C0.947201 15.4667 1.33053 15.8333 1.86387 16.2L16.6139 26.4C17.2139 26.8 17.6639 27 17.9639 27C18.2639 27 18.4972 26.9 18.6639 26.7C18.8639 26.5333 18.9639 26.3 18.9639 26V25.15C18.9639 24.8167 18.8805 24.5333 18.7139 24.3C18.5805 24.1 18.3139 23.8667 17.9139 23.6L3.46387 13.6L17.9139 3.6C18.3139 3.33333 18.5805 3.08333 18.7139 2.85C18.8805 2.65 18.9639 2.38333 18.9639 2.05V1.2C18.9639 0.9 18.8639 0.65 18.6639 0.45C18.4972 0.283334 18.2639 0.2 17.9639 0.2Z" fill="#6C1D45"/>
</svg>
